<svg xmlns="http://www.w3.org/2000/svg" width="63" height="79"><style>tspan { white-space:pre } .shp0 { fill: #835fa7 }</style><path id="Shape 11" d="M40.8 69.08L36 64.6 49.9 49.77c4.37-5.45 6.5-11.36 6.5-18.07 0-7.03-2.4-12.86-7.37-17.8-4.9-4.84-10.64-7.24-17.55-7.34-6.9.1-12.64 2.5-17.52 7.34C9 18.84 6.6 24.67 6.6 31.7c0 6.75 2.14 12.7 6.55 18.17l2.06 2.56-5.14 4.1L8 53.98c-5.3-6.6-8-14.1-8-22.27 0-8.73 3.13-16.3 9.3-22.45C15.37 3.22 22.82.1 31.42 0h.09c8.6.1 16.06 3.22 22.17 9.24C59.86 15.4 63 22.97 63 31.7c0 8.2-2.7 15.68-8.04 22.28l-.16.18-14 14.92zm-5.1-5.3l-6.04-6.92 4.98-4.3 6.04 6.93-4.98 4.3zm-14-17.9c-.88 0-1.75-.36-2.4-1.04-1.15-1.2-1.97-2.55-2.44-4.03-.5-1.44-.67-3-.48-4.6.2-3.16 1.58-5.93 4.02-7.98 2.4-2.02 5.32-2.94 8.43-2.66 1.87.1 3.58.63 5.08 1.58 1.07.6 2.03 1.4 2.87 2.36l9.06 10.43c1.2 1.37 1.04 3.44-.34 4.63-1.38 1.18-3.47 1.03-4.66-.34L31.77 33.8c0-.02-.02-.03-.03-.04-.33-.4-.7-.7-1.08-.9-.1-.05-.17-.1-.25-.15-.55-.36-1.2-.55-1.97-.6-.05 0-.1 0-.16 0-1.38-.13-2.53.23-3.6 1.13-1.1.9-1.64 2-1.7 3.44-.02.07-.02.15-.03.23-.08.65-.03 1.24.17 1.8.02.03.03.07.04.1.17.54.48 1.04.95 1.53 1.24 1.3 1.2 3.4-.14 4.64-.63.6-1.45.9-2.27.9zm18.62 23.2l-8.95-10.24 4.98-4.3 8.95 10.23-4.98 4.3zM31.56 79c-.92 0-1.83-.38-2.48-1.12l-21-23.8c-1.2-1.36-1.05-3.43.32-4.62 1.37-1.2 3.45-1.06 4.65.3l21 23.8c1.2 1.36 1.05 3.43-.32 4.62-.62.55-1.4.82-2.17.82zm2.75-18.53c-.9 0-1.84-.4-2.5-1.14l-12.6-14.6c-1.2-1.38-1.04-3.45.34-4.63 1.38-1.2 3.47-1.03 4.65.35l12.6 14.6c1.2 1.38 1.05 3.45-.34 4.63-.62.53-1.38.8-2.15.8z" class="shp0"/></svg>