<svg xmlns="http://www.w3.org/2000/svg" width="54" height="45"><style>tspan { white-space:pre } .shp0 { fill: #3dd1ad }</style><path id="Shape 7" d="M52.53 1.16c-1.43-1.4-3.88-.4-3.88-.4-3.58.7-23.4 20.24-23.4 20.24l-2.03 1.98-5.06 6.94-2.02 2s-5.06-1-7.08 1.97c-2.02 5.94-3.03 7.93-8.08 7.93 17.18 6.94 20.2-4.96 20.2-4.96l2.04-2 7.07-4.95 2-1.98S52.23 8.48 52.95 4.97c0 0 1.02-2.4-.4-3.8zM10.58 42.02c-1 0-2.07-.1-3.2-.32 1.56-1.53 2.47-3.86 3.5-6.88.8-.94 2.42-1.1 3.35-1.1.87 0 1.52.13 1.52.13.13.03.26.04.4.04.45 0 .9-.17 1.26-.46l2.24 2.2c-.2.2-.34.47-.4.75-.07.2-1.62 5.62-8.66 5.62zm40.48-37.8c-.04.1-.08.25-.1.36-.67 2.1-10.74 12.83-20.07 21.95l-1.92 1.87-6.94 4.87c-.1.06-.17.13-.25.2l-.67.66-2.2-2.16.66-.64c.07-.08.14-.16.2-.25l4.96-6.8 1.9-1.88C35.97 13.23 46.9 3.36 49.1 2.7c.12-.03.2-.06.33-.1.13-.06.6-.2 1.07-.2.3 0 .5.05.6.16.3.3.14 1.23-.04 1.66z" class="shp0"/></svg>